<mxfile host="Electron" modified="2023-04-09T18:11:36.122Z" agent="Mozilla/5.0 (Macintosh; Intel Mac OS X 10_15_7) AppleWebKit/537.36 (KHTML, like Gecko) draw.io/21.1.2 Chrome/106.0.5249.199 Electron/21.4.3 Safari/537.36" etag="XO6AXuYyW6nmql0v3LET" version="21.1.2" type="device">
  <diagram id="y2soD86eexGVYIAklzIW" name="Page-1">
    <mxGraphModel dx="1590" dy="1030" grid="1" gridSize="10" guides="1" tooltips="1" connect="1" arrows="1" fold="1" page="1" pageScale="1" pageWidth="1169" pageHeight="827" math="0" shadow="0">
      <root>
        <mxCell id="0" />
        <mxCell id="1" parent="0" />
        <mxCell id="pdIrMi8QaVLjiVIbVTNG-3" value="" style="rounded=0;whiteSpace=wrap;html=1;" parent="1" vertex="1">
          <mxGeometry x="480" y="320" width="200" height="130" as="geometry" />
        </mxCell>
        <mxCell id="pdIrMi8QaVLjiVIbVTNG-4" value="&lt;b&gt;&lt;font style=&quot;background-color: rgb(0, 0, 0);&quot; color=&quot;#00ff22&quot;&gt;БД&lt;/font&gt;&lt;/b&gt;" style="shape=cylinder3;whiteSpace=wrap;html=1;boundedLbl=1;backgroundOutline=1;size=15;" parent="1" vertex="1">
          <mxGeometry x="490" y="360" width="60" height="70" as="geometry" />
        </mxCell>
        <mxCell id="pdIrMi8QaVLjiVIbVTNG-6" value="&lt;b&gt;&lt;font style=&quot;background-color: rgb(0, 0, 0);&quot; color=&quot;#00ff22&quot;&gt;CRM&lt;/font&gt;&lt;/b&gt;" style="html=1;whiteSpace=wrap;shape=isoCube2;backgroundOutline=1;isoAngle=15;" parent="1" vertex="1">
          <mxGeometry x="580" y="360" width="80" height="80" as="geometry" />
        </mxCell>
        <mxCell id="pdIrMi8QaVLjiVIbVTNG-7" value="CRM система &amp;amp;&lt;br&gt;База данных" style="text;html=1;align=center;verticalAlign=middle;whiteSpace=wrap;rounded=0;labelBackgroundColor=none;fontColor=#000000;" parent="1" vertex="1">
          <mxGeometry x="480" y="330" width="190" height="30" as="geometry" />
        </mxCell>
        <mxCell id="pdIrMi8QaVLjiVIbVTNG-8" value="Центральный склад&amp;nbsp;" style="rounded=1;whiteSpace=wrap;html=1;labelBackgroundColor=none;fontColor=#000000;" parent="1" vertex="1">
          <mxGeometry x="615" y="140" width="130" height="60" as="geometry" />
        </mxCell>
        <mxCell id="pdIrMi8QaVLjiVIbVTNG-9" value="Менеджер СТО / Мастерской" style="rounded=1;whiteSpace=wrap;html=1;labelBackgroundColor=none;fontColor=#000000;" parent="1" vertex="1">
          <mxGeometry x="170" y="352.5" width="155" height="60" as="geometry" />
        </mxCell>
        <mxCell id="pdIrMi8QaVLjiVIbVTNG-10" value="Механик СТО / Мастерской" style="rounded=1;whiteSpace=wrap;html=1;labelBackgroundColor=none;fontColor=#000000;" parent="1" vertex="1">
          <mxGeometry x="615" y="560" width="155" height="60" as="geometry" />
        </mxCell>
        <mxCell id="pdIrMi8QaVLjiVIbVTNG-13" value="Финансовый директор&amp;nbsp;" style="rounded=1;whiteSpace=wrap;html=1;labelBackgroundColor=none;fontColor=#000000;" parent="1" vertex="1">
          <mxGeometry x="815" y="355" width="155" height="60" as="geometry" />
        </mxCell>
        <mxCell id="pdIrMi8QaVLjiVIbVTNG-17" value="" style="endArrow=classic;html=1;rounded=0;fontColor=#000000;exitX=0;exitY=0.25;exitDx=0;exitDy=0;entryX=1.009;entryY=0.392;entryDx=0;entryDy=0;entryPerimeter=0;" parent="1" source="pdIrMi8QaVLjiVIbVTNG-13" target="pdIrMi8QaVLjiVIbVTNG-3" edge="1">
          <mxGeometry width="50" height="50" relative="1" as="geometry">
            <mxPoint x="635" y="450" as="sourcePoint" />
            <mxPoint x="685" y="400" as="targetPoint" />
          </mxGeometry>
        </mxCell>
        <mxCell id="pdIrMi8QaVLjiVIbVTNG-18" value="&lt;font style=&quot;font-size: 13px;&quot;&gt;&lt;b&gt;Выходные потоки:&lt;br&gt;&lt;/b&gt;Анализ показателей по всем направлениям;&lt;br&gt;&lt;br&gt;&lt;br&gt;&lt;/font&gt;" style="text;html=1;strokeColor=none;fillColor=none;align=left;verticalAlign=middle;whiteSpace=wrap;rounded=0;labelBackgroundColor=none;fontColor=#000000;" parent="1" vertex="1">
          <mxGeometry x="695" y="415" width="320" height="70" as="geometry" />
        </mxCell>
        <mxCell id="mHxxw0sdOfhG01UjWFxC-1" value="Локальный склад&amp;nbsp;" style="rounded=1;whiteSpace=wrap;html=1;labelBackgroundColor=none;fontColor=#000000;" vertex="1" parent="1">
          <mxGeometry x="415" y="140" width="130" height="60" as="geometry" />
        </mxCell>
        <mxCell id="mHxxw0sdOfhG01UjWFxC-2" value="Бухгалтерия" style="rounded=1;whiteSpace=wrap;html=1;labelBackgroundColor=none;fontColor=#000000;" vertex="1" parent="1">
          <mxGeometry x="450" y="560" width="130" height="60" as="geometry" />
        </mxCell>
        <mxCell id="mHxxw0sdOfhG01UjWFxC-3" value="" style="endArrow=classic;html=1;rounded=0;fontColor=#000000;entryX=0;entryY=0.75;entryDx=0;entryDy=0;exitX=1;exitY=0.624;exitDx=0;exitDy=0;exitPerimeter=0;" edge="1" parent="1" source="pdIrMi8QaVLjiVIbVTNG-3" target="pdIrMi8QaVLjiVIbVTNG-13">
          <mxGeometry width="50" height="50" relative="1" as="geometry">
            <mxPoint x="715" y="400" as="sourcePoint" />
            <mxPoint x="825" y="480" as="targetPoint" />
          </mxGeometry>
        </mxCell>
        <mxCell id="mHxxw0sdOfhG01UjWFxC-4" value="&lt;font style=&quot;font-size: 13px;&quot;&gt;&lt;b&gt;Входные потоки:&lt;br&gt;&lt;/b&gt;Запрос на информацию по метрикам&amp;nbsp;&lt;br&gt;&lt;br&gt;&lt;/font&gt;" style="text;html=1;strokeColor=none;fillColor=none;align=left;verticalAlign=middle;whiteSpace=wrap;rounded=0;labelBackgroundColor=none;fontColor=#000000;" vertex="1" parent="1">
          <mxGeometry x="695" y="300" width="320" height="70" as="geometry" />
        </mxCell>
        <mxCell id="mHxxw0sdOfhG01UjWFxC-5" value="" style="endArrow=classic;html=1;rounded=0;fontColor=#000000;entryX=1;entryY=0;entryDx=0;entryDy=0;exitX=0.5;exitY=1;exitDx=0;exitDy=0;" edge="1" parent="1" source="pdIrMi8QaVLjiVIbVTNG-8" target="pdIrMi8QaVLjiVIbVTNG-3">
          <mxGeometry width="50" height="50" relative="1" as="geometry">
            <mxPoint x="690" y="411" as="sourcePoint" />
            <mxPoint x="825" y="410" as="targetPoint" />
          </mxGeometry>
        </mxCell>
        <mxCell id="mHxxw0sdOfhG01UjWFxC-6" value="" style="endArrow=classic;html=1;rounded=0;fontColor=#000000;entryX=0.063;entryY=0.969;entryDx=0;entryDy=0;exitX=0.72;exitY=-0.014;exitDx=0;exitDy=0;exitPerimeter=0;entryPerimeter=0;" edge="1" parent="1" source="pdIrMi8QaVLjiVIbVTNG-3" target="pdIrMi8QaVLjiVIbVTNG-8">
          <mxGeometry width="50" height="50" relative="1" as="geometry">
            <mxPoint x="690" y="210" as="sourcePoint" />
            <mxPoint x="690" y="330" as="targetPoint" />
          </mxGeometry>
        </mxCell>
        <mxCell id="mHxxw0sdOfhG01UjWFxC-7" value="&lt;font style=&quot;font-size: 13px;&quot;&gt;&lt;b&gt;Входные потоки:&lt;/b&gt;&lt;br&gt;Внесение информации о наличии ЗЧ&lt;br&gt;Запрос на информацию о наличии ЗЧ&amp;nbsp;&lt;br&gt;&lt;br&gt;&lt;/font&gt;" style="text;html=1;strokeColor=none;fillColor=none;align=left;verticalAlign=middle;whiteSpace=wrap;rounded=0;labelBackgroundColor=none;fontColor=#000000;" vertex="1" parent="1">
          <mxGeometry x="615" y="60" width="320" height="70" as="geometry" />
        </mxCell>
        <mxCell id="mHxxw0sdOfhG01UjWFxC-8" value="&lt;font style=&quot;font-size: 13px;&quot;&gt;&lt;b&gt;Выходные потоки:&lt;br&gt;&lt;/b&gt;Получение информации о наличии ЗЧ&lt;br&gt;Запрос на выдачу деталей от локальных складов&lt;br&gt;&lt;/font&gt;" style="text;html=1;strokeColor=none;fillColor=none;align=left;verticalAlign=middle;whiteSpace=wrap;rounded=0;labelBackgroundColor=none;fontColor=#000000;" vertex="1" parent="1">
          <mxGeometry x="760" y="135" width="320" height="70" as="geometry" />
        </mxCell>
        <mxCell id="mHxxw0sdOfhG01UjWFxC-9" value="&lt;font style=&quot;font-size: 13px;&quot;&gt;&lt;b&gt;Входные потоки:&lt;/b&gt;&lt;br&gt;Внесение информации о наличии ЗЧ&lt;br&gt;Запрос на информацию о наличии ЗЧ&amp;nbsp;&lt;br&gt;&lt;br&gt;&lt;/font&gt;" style="text;html=1;strokeColor=none;fillColor=none;align=left;verticalAlign=middle;whiteSpace=wrap;rounded=0;labelBackgroundColor=none;fontColor=#000000;" vertex="1" parent="1">
          <mxGeometry x="295" y="70" width="320" height="70" as="geometry" />
        </mxCell>
        <mxCell id="mHxxw0sdOfhG01UjWFxC-10" value="&lt;font style=&quot;font-size: 13px;&quot;&gt;&lt;b&gt;Выходные потоки:&lt;br&gt;&lt;/b&gt;Получение информации о наличии ЗЧ&lt;br&gt;&lt;br&gt;&lt;/font&gt;" style="text;html=1;strokeColor=none;fillColor=none;align=left;verticalAlign=middle;whiteSpace=wrap;rounded=0;labelBackgroundColor=none;fontColor=#000000;" vertex="1" parent="1">
          <mxGeometry x="170" y="130" width="320" height="70" as="geometry" />
        </mxCell>
        <mxCell id="mHxxw0sdOfhG01UjWFxC-11" value="" style="endArrow=classic;html=1;rounded=0;fontColor=#000000;entryX=0.063;entryY=0.969;entryDx=0;entryDy=0;exitX=0.72;exitY=-0.014;exitDx=0;exitDy=0;exitPerimeter=0;entryPerimeter=0;" edge="1" parent="1">
          <mxGeometry width="50" height="50" relative="1" as="geometry">
            <mxPoint x="481" y="320" as="sourcePoint" />
            <mxPoint x="480" y="200" as="targetPoint" />
          </mxGeometry>
        </mxCell>
        <mxCell id="mHxxw0sdOfhG01UjWFxC-12" value="" style="endArrow=classic;html=1;rounded=0;fontColor=#000000;entryX=1;entryY=0;entryDx=0;entryDy=0;exitX=0.5;exitY=1;exitDx=0;exitDy=0;" edge="1" parent="1">
          <mxGeometry width="50" height="50" relative="1" as="geometry">
            <mxPoint x="519.52" y="200" as="sourcePoint" />
            <mxPoint x="519.52" y="320" as="targetPoint" />
          </mxGeometry>
        </mxCell>
        <mxCell id="mHxxw0sdOfhG01UjWFxC-13" value="&lt;font style=&quot;font-size: 13px;&quot;&gt;&lt;b&gt;Входные потоки:&lt;/b&gt;&lt;br&gt;Внесение информации о клиентах&lt;br&gt;Запись клиентов на ремонт&lt;br&gt;&lt;/font&gt;" style="text;html=1;strokeColor=none;fillColor=none;align=left;verticalAlign=middle;whiteSpace=wrap;rounded=0;labelBackgroundColor=none;fontColor=#000000;" vertex="1" parent="1">
          <mxGeometry x="170" y="282.5" width="320" height="70" as="geometry" />
        </mxCell>
        <mxCell id="mHxxw0sdOfhG01UjWFxC-14" value="&lt;font style=&quot;font-size: 13px;&quot;&gt;&lt;b&gt;Выходные потоки:&lt;br&gt;&lt;/b&gt;Получение информации о клиентах&amp;nbsp;&lt;br&gt;Получение информации о статусе работ&amp;nbsp;&lt;br&gt;Получение информации о свободных мастерах&lt;br&gt;Получение информации об оплате&lt;br&gt;&lt;/font&gt;" style="text;html=1;strokeColor=none;fillColor=none;align=left;verticalAlign=middle;whiteSpace=wrap;rounded=0;labelBackgroundColor=none;fontColor=#000000;" vertex="1" parent="1">
          <mxGeometry x="30" y="387.5" width="305" height="97.5" as="geometry" />
        </mxCell>
        <mxCell id="mHxxw0sdOfhG01UjWFxC-17" value="" style="endArrow=classic;html=1;rounded=0;fontColor=#000000;entryX=-0.008;entryY=0.367;entryDx=0;entryDy=0;exitX=1;exitY=0.25;exitDx=0;exitDy=0;entryPerimeter=0;" edge="1" parent="1" source="pdIrMi8QaVLjiVIbVTNG-9" target="pdIrMi8QaVLjiVIbVTNG-3">
          <mxGeometry width="50" height="50" relative="1" as="geometry">
            <mxPoint x="491" y="330" as="sourcePoint" />
            <mxPoint x="490" y="210" as="targetPoint" />
          </mxGeometry>
        </mxCell>
        <mxCell id="mHxxw0sdOfhG01UjWFxC-18" value="" style="endArrow=classic;html=1;rounded=0;fontColor=#000000;exitX=0.001;exitY=0.608;exitDx=0;exitDy=0;entryX=1;entryY=0.75;entryDx=0;entryDy=0;exitPerimeter=0;" edge="1" parent="1" source="pdIrMi8QaVLjiVIbVTNG-3" target="pdIrMi8QaVLjiVIbVTNG-9">
          <mxGeometry width="50" height="50" relative="1" as="geometry">
            <mxPoint x="454.52" y="322.5" as="sourcePoint" />
            <mxPoint x="454.52" y="442.5" as="targetPoint" />
          </mxGeometry>
        </mxCell>
        <mxCell id="mHxxw0sdOfhG01UjWFxC-19" value="" style="endArrow=classic;html=1;rounded=0;fontColor=#000000;entryX=0.063;entryY=0.969;entryDx=0;entryDy=0;entryPerimeter=0;exitX=0.314;exitY=-0.015;exitDx=0;exitDy=0;exitPerimeter=0;" edge="1" parent="1" source="mHxxw0sdOfhG01UjWFxC-2">
          <mxGeometry width="50" height="50" relative="1" as="geometry">
            <mxPoint x="490" y="530" as="sourcePoint" />
            <mxPoint x="490" y="450" as="targetPoint" />
          </mxGeometry>
        </mxCell>
        <mxCell id="mHxxw0sdOfhG01UjWFxC-20" value="" style="endArrow=classic;html=1;rounded=0;fontColor=#000000;exitX=0.5;exitY=1;exitDx=0;exitDy=0;entryX=0.592;entryY=0.017;entryDx=0;entryDy=0;entryPerimeter=0;" edge="1" parent="1" target="mHxxw0sdOfhG01UjWFxC-2">
          <mxGeometry width="50" height="50" relative="1" as="geometry">
            <mxPoint x="525" y="450" as="sourcePoint" />
            <mxPoint x="530" y="560" as="targetPoint" />
          </mxGeometry>
        </mxCell>
        <mxCell id="mHxxw0sdOfhG01UjWFxC-21" value="" style="endArrow=classic;html=1;rounded=0;fontColor=#000000;entryX=0.75;entryY=1;entryDx=0;entryDy=0;exitX=0.114;exitY=-0.015;exitDx=0;exitDy=0;exitPerimeter=0;" edge="1" parent="1" source="pdIrMi8QaVLjiVIbVTNG-10" target="pdIrMi8QaVLjiVIbVTNG-3">
          <mxGeometry width="50" height="50" relative="1" as="geometry">
            <mxPoint x="630.53" y="570" as="sourcePoint" />
            <mxPoint x="629.53" y="450" as="targetPoint" />
          </mxGeometry>
        </mxCell>
        <mxCell id="mHxxw0sdOfhG01UjWFxC-22" value="" style="endArrow=classic;html=1;rounded=0;fontColor=#000000;entryX=0.354;entryY=-0.015;entryDx=0;entryDy=0;exitX=0.5;exitY=1;exitDx=0;exitDy=0;entryPerimeter=0;" edge="1" parent="1" target="pdIrMi8QaVLjiVIbVTNG-10">
          <mxGeometry width="50" height="50" relative="1" as="geometry">
            <mxPoint x="669.05" y="450" as="sourcePoint" />
            <mxPoint x="669.05" y="570" as="targetPoint" />
          </mxGeometry>
        </mxCell>
        <mxCell id="mHxxw0sdOfhG01UjWFxC-23" value="&lt;font style=&quot;font-size: 13px;&quot;&gt;&lt;b&gt;Входные потоки:&lt;/b&gt;&lt;br&gt;Отправка расчетных листов сотрудников&lt;br&gt;Отчеты&lt;br&gt;&lt;/font&gt;" style="text;html=1;strokeColor=none;fillColor=none;align=left;verticalAlign=middle;whiteSpace=wrap;rounded=0;labelBackgroundColor=none;fontColor=#000000;" vertex="1" parent="1">
          <mxGeometry x="180" y="530" width="320" height="70" as="geometry" />
        </mxCell>
        <mxCell id="mHxxw0sdOfhG01UjWFxC-25" value="&lt;font style=&quot;font-size: 13px;&quot;&gt;&lt;b&gt;Выходные потоки:&lt;br&gt;&lt;/b&gt;Получение информации о трудозатратах сотрудников&lt;br&gt;Информация о платежах&lt;br&gt;&lt;/font&gt;" style="text;html=1;strokeColor=none;fillColor=none;align=left;verticalAlign=middle;whiteSpace=wrap;rounded=0;labelBackgroundColor=none;fontColor=#000000;" vertex="1" parent="1">
          <mxGeometry x="325" y="600" width="305" height="97.5" as="geometry" />
        </mxCell>
        <mxCell id="mHxxw0sdOfhG01UjWFxC-26" value="&lt;font style=&quot;font-size: 13px;&quot;&gt;&lt;b&gt;Входные потоки:&lt;/b&gt;&lt;br&gt;Внесение информации о проведенных работах&lt;br&gt;&lt;/font&gt;" style="text;html=1;strokeColor=none;fillColor=none;align=left;verticalAlign=middle;whiteSpace=wrap;rounded=0;labelBackgroundColor=none;fontColor=#000000;" vertex="1" parent="1">
          <mxGeometry x="785" y="550" width="320" height="70" as="geometry" />
        </mxCell>
        <mxCell id="mHxxw0sdOfhG01UjWFxC-28" value="&lt;font style=&quot;font-size: 13px;&quot;&gt;&lt;b&gt;Выходные потоки:&lt;br&gt;&lt;/b&gt;Получение информации о наличии ЗЧ для проведения работ&lt;br&gt;Получение информации о заказе&lt;br&gt;&lt;/font&gt;" style="text;html=1;strokeColor=none;fillColor=none;align=left;verticalAlign=middle;whiteSpace=wrap;rounded=0;labelBackgroundColor=none;fontColor=#000000;" vertex="1" parent="1">
          <mxGeometry x="645" y="620" width="320" height="97.5" as="geometry" />
        </mxCell>
      </root>
    </mxGraphModel>
  </diagram>
</mxfile>
